# xmcd CD database file
#
# Track frame offsets:
#	150
#	20574
#	35826
#	50791
#	68618
#	85655
#	99521
#	108194
#	124727
#	137735
#
# Disc length: 1989 seconds
#
# Revision: 0
# Processed by: cddbd v1.5.1PL0 Copyright (c) Steve Scherf et al.
# Submitted via: CDex 1.50beta8
#
DISCID=8407c30a
DTITLE=マキシマム ザ ホルモン - 鳳・ブルペンキャッチャーズドリーム
DYEAR=1900
DGENRE=Hardcore
TTITLE0=FORCE
TTITLE1=マキシマム・ザ・ホルモンのテーマ 〜麺カタこってり〜
TTITLE2=マキシマムザ 21世紀
TTITLE3=BxBx
TTITLE4=移民の豚
TTITLE5=W・H・U
TTITLE6=マシンガン糞ブギ
TTITLE7=B.B
TTITLE8=メタルちゃん
TTITLE9=THE CLAIM YOUTH 2000
EXTD=
EXTT0=
EXTT1=
EXTT2=
EXTT3=
EXTT4=
EXTT5=
EXTT6=
EXTT7=
EXTT8=
EXTT9=
PLAYORDER=
